<?xml version="1.0" encoding="utf-8"?>
<!-- Generator: Adobe Illustrator 25.2.1, SVG Export Plug-In . SVG Version: 6.00 Build 0)  -->
<svg version="1.1" id="Layer_1" xmlns="http://www.w3.org/2000/svg" xmlns:xlink="http://www.w3.org/1999/xlink" x="0px" y="0px"
	 width="442.9px" height="46.7px" viewBox="0 0 442.9 46.7" style="enable-background:new 0 0 442.9 46.7;" xml:space="preserve">
<style type="text/css">
	.st0{fill:#4391CD;}
	.st1{fill:#231F20;}
	.st2{fill:#1A92D2;}
</style>
<g>
	<path d="M4.2,17.9C3.9,18.4,2.5,23.5,0,33.3v0.8c0.4,1.1,1.1,1.6,2.1,1.6h0.4c0.5,0,1-0.4,1.6-1.1c0.3-1,1.4-5,3.3-12.2
		c1.3-0.7,2.6-1.1,4-1.1c1,0.1,1.8,0.2,2.4,0.4c-2,7.4-3,11.4-3.1,12c0,0,0-0.1,0.1-0.1c0,1.2,0.7,1.9,2.1,2.2
		c0.7,0,1.3-0.3,1.9-0.9C15,34.5,16.1,30.6,18,23c0-0.8,1.4-1.4,4.2-1.7c0.7,0.1,1.5,0.2,2.4,0.4c-2.1,7.8-3.1,11.8-3.1,12
		c0.3,1.4,1,2.1,1.9,2.1h0.5c0.6,0,1.1-0.4,1.7-1.1c2.2-8.1,3.4-12.7,3.6-13.7v-0.4c0-0.5-0.2-1.1-0.6-1.7c-1.5-1.3-3.5-2-5.9-2
		h-1.2c-1.4,0-3,0.4-4.7,1.1c-1.9-0.7-3.6-1.1-5.2-1.1h-0.8c-1.1,0-2.3,0.2-3.4,0.6c-0.5-0.4-0.9-0.6-1.4-0.6H5.7
		C5.2,17.1,4.7,17.4,4.2,17.9L4.2,17.9L4.2,17.9z M38.2,17.5c-2.2,0.7-3.7,1.5-4.5,2.5c-2,7.3-3.1,11.3-3.1,11.9v0.3
		c0,0.6,0.3,1.2,0.8,1.8c1.5,1.3,3.3,1.9,5.5,1.9h1.4c1.3,0,2.7-0.3,4.2-0.9c1.2-0.4,2.2-1.1,2.9-2c2.1-7.4,3.1-11.3,3.1-11.9v-0.4
		c0-0.5-0.2-1-0.5-1.4c-1.3-1.5-3.4-2.2-6.2-2.2h-0.8C40.2,17.1,39.2,17.2,38.2,17.5L38.2,17.5L38.2,17.5z M37.5,22.4
		c1.2-0.7,2.4-1,3.6-1h0.5c0.5,0,1.3,0.1,2.2,0.3c0,0.2-0.7,3.1-2.2,8.7c-1.2,0.7-2.4,1-3.6,1h-0.9c-0.6,0-1.2-0.1-1.8-0.3
		C35.3,30.9,36,28,37.5,22.4L37.5,22.4L37.5,22.4z M53.5,18.3c-2.1,7.6-3.2,12.2-3.5,13.5v0.4c0,0.4,0.2,1,0.5,1.5
		c1.5,1.4,3.5,2.1,6,2.1h0.9c1.1,0,2.3-0.2,3.5-0.6c0.4,0.4,0.8,0.6,1.2,0.6h0.5c0.6,0,1.2-0.4,1.7-1.1c2.6-9.9,4-15,4-15.3v-0.5
		c0-0.9-0.6-1.5-1.9-1.8h-0.6c-0.5,0-1,0.4-1.6,1.1L61,30.4c-1.1,0.7-2.3,1-3.7,1h-0.4c-0.6,0-1.3-0.1-2-0.2h-0.3
		c2-7.8,3-11.7,3-11.9v-0.5c-0.4-1.1-1.1-1.7-2.1-1.7h-0.4C54.6,17.1,54,17.5,53.5,18.3L53.5,18.3L53.5,18.3z M73.9,18
		c-0.3,0.5-1.7,5.6-4.2,15.4V34c0,0.9,0.6,1.5,1.9,1.8h0.6c0.4,0,0.9-0.3,1.5-0.9c0.2-0.4,1.4-4.5,3.4-12.4c1.2-0.7,2.6-1.1,4.1-1.1
		c0.6,0.1,1.4,0.2,2.3,0.4l-3,11.6v0.5c0,1,0.7,1.6,2.1,1.9c0.8,0,1.5-0.4,2-1.1c2.4-8.6,3.6-13.1,3.6-13.6v-0.4
		c0-0.5-0.2-1.1-0.6-1.7c-1.5-1.3-3.5-2-5.9-2h-1c-1.1,0-2.3,0.2-3.4,0.6c-0.5-0.4-0.9-0.6-1.2-0.6h-0.6C75,17.2,74.5,17.4,73.9,18
		L73.9,18L73.9,18z"/>
	<path d="M90.3,11.7v0.6c0,0.7,0.5,1.3,1.6,1.8c1.7,0,2.5,0.5,2.5,1.6v0.6l-4,15.5c0,0.7,0.2,1.3,0.7,1.9c1.4,1.4,3.3,2.1,5.8,2.1h1
		c0.6,0,1.2-0.1,1.8-0.2c3.9-1,5.8-2.1,5.8-3.6v-0.7c-0.4-1.1-1.1-1.7-2.1-1.7c-0.2,0-0.4,0-0.6,0.1c-1.7,1.2-3.3,1.7-4.8,1.7h-0.9
		c-0.7,0-1.4-0.1-2-0.3c1.5-5.5,2.2-8.4,2.2-8.6c0.9-0.7,2.4-1.1,4.5-1.1c1.3-0.4,2-1.1,2-2.1l-0.1-0.5c-0.4-1.1-1.1-1.7-1.9-1.7
		H101c-0.5,0-1.2,0.1-2.2,0.2v-1.7c0-0.7-0.2-1.5-0.6-2.3c-1.3-2.2-3-3.3-5.1-3.3h-0.9C91.3,9.9,90.7,10.5,90.3,11.7L90.3,11.7
		L90.3,11.7z M117.4,17.2c-3.9,1-5.8,2.1-5.8,3.6v0.5l0.1,0.4c0.4,1,1.1,1.5,2.1,1.5c0.2,0,0.4,0,0.6-0.1c1.7-1.2,3.3-1.7,4.8-1.7
		h0.9c0.6,0,1.2,0.1,1.8,0.3c0,0.3-0.2,1.2-0.7,2.9c-1.2-0.3-2.3-0.4-3.2-0.4h-0.5c-2.8,0-5.2,0.8-7.3,2.5c-0.4,0-0.9,1.7-1.6,5.1
		v0.4c0,0.4,0.2,1,0.5,1.5c1.5,1.4,3.5,2.1,6,2.1h1.2c1.4,0,3-0.4,4.8-1.2c1.1-0.5,1.9-1.1,2.5-1.9c1.8-6.6,2.8-10.5,3-11.7v-0.3
		c0-0.2-0.1-0.5-0.2-0.9c-1.1-1.9-3.2-2.9-6.3-2.9h-1C118.6,17.1,118,17.1,117.4,17.2L117.4,17.2L117.4,17.2z M113.5,30.2
		c0-1,1.4-1.5,4.2-1.6h0.2c0.7,0,1.3,0.1,2.1,0.3c0,0.5-0.1,0.8-0.2,1.1c0,0.8-1.2,1.3-3.7,1.6h-0.5c-0.6,0-1.3-0.1-2.1-0.3
		C113.4,30.5,113.5,30.2,113.5,30.2L113.5,30.2L113.5,30.2z"/>
	<path d="M133.4,12.2c0,1.1,0.7,1.8,2.2,2.1c1.4-0.3,2.1-1,2.1-1.9v-0.6c0-0.9-0.6-1.5-1.9-1.8h-0.6C134.4,10,133.7,10.7,133.4,12.2
		L133.4,12.2L133.4,12.2z M131.9,18.1c-0.3,0.7-1.7,5.8-4.1,15.3v0.7c0.4,1.1,1,1.7,1.8,1.7h0.6c0.6,0,1.1-0.4,1.7-1.2
		c2.5-9.2,3.8-14.3,4-15.3V19c0-1-0.7-1.6-2.1-1.9C133.1,17.1,132.5,17.4,131.9,18.1L131.9,18.1L131.9,18.1z M141.2,18
		c-0.3,0.5-1.7,5.6-4.2,15.4V34c0,0.9,0.6,1.5,1.9,1.8h0.6c0.4,0,0.9-0.3,1.5-0.9c0.2-0.4,1.4-4.5,3.4-12.4c1.2-0.7,2.6-1.1,4.1-1.1
		c0.6,0.1,1.4,0.2,2.3,0.4l-3,11.6v0.5c0,1,0.7,1.6,2.1,1.9c0.8,0,1.5-0.4,2-1.1c2.4-8.6,3.6-13.1,3.6-13.6v-0.4
		c0-0.5-0.2-1.1-0.6-1.7c-1.5-1.3-3.5-2-5.9-2h-1c-1.1,0-2.3,0.2-3.4,0.6c-0.5-0.4-0.9-0.6-1.2-0.6h-0.6
		C142.2,17.2,141.7,17.4,141.2,18L141.2,18L141.2,18z"/>
	<path class="st0" d="M158.6,11.7v0.9c0.4,1.1,1.3,1.6,2.9,1.6h3.5l-1,4c-1.9,6.6-2.8,10.4-2.8,11.3c0,1,0.2,1.8,0.5,2.6
		c1.2,2.4,3,3.6,5.4,3.6h0.7c1.2-0.4,1.8-1.1,1.8-2.1c0-0.2,0-0.4-0.1-0.6c-0.4-1.2-1.1-1.7-2.4-1.7c-1,0-1.5-0.6-1.7-1.7v-0.1
		c0-0.4,1.3-5.5,3.9-15.4h1.6c1,0,1.5,0.6,1.7,1.8l-0.2,1.3c0,0.2,0.1,0.6,0.2,1c0.5,0.9,1.2,1.3,1.9,1.3c0.2-0.1,0.4-0.1,0.5-0.1
		c1.2-0.3,1.9-1.4,1.9-3.2v-0.9c0-0.4-0.1-0.9-0.3-1.7c-1.2-2.7-3.1-4-5.6-4h-10.8C159.6,9.9,158.9,10.5,158.6,11.7L158.6,11.7
		L158.6,11.7z"/>
	<path d="M187.8,17.5c-2.2,0.7-3.7,1.5-4.5,2.5c-2,7.3-3.1,11.3-3.1,11.9v0.3c0,0.6,0.3,1.2,0.8,1.8c1.5,1.3,3.3,1.9,5.5,1.9h1.4
		c1.3,0,2.7-0.3,4.2-0.9c1.2-0.4,2.2-1.1,2.9-2c2.1-7.4,3.1-11.3,3.1-11.9v-0.4c0-0.5-0.2-1-0.5-1.4c-1.3-1.5-3.4-2.2-6.2-2.2h-0.8
		C189.8,17.1,188.8,17.2,187.8,17.5L187.8,17.5L187.8,17.5z M187.1,22.4c1.2-0.7,2.4-1,3.6-1h0.5c0.5,0,1.3,0.1,2.2,0.3
		c0,0.2-0.7,3.1-2.2,8.7c-1.2,0.7-2.4,1-3.6,1h-0.9c-0.6,0-1.2-0.1-1.8-0.3C184.9,30.9,185.7,28,187.1,22.4L187.1,22.4L187.1,22.4z
		 M208.8,17.3c-2.7,0.7-4.5,1.6-5.3,2.7c-0.4,1.1-2.2,8-5.4,20.6v0.6c0,0.9,0.6,1.5,1.9,1.8h0.6c0.4,0,0.9-0.3,1.4-0.8
		c0.2-0.2,0.9-2.5,2-6.8c1.3,0.3,2.4,0.4,3.3,0.4h0.4c1.1,0,2.4-0.2,3.8-0.5c2.4-1,3.7-1.8,3.9-2.4c1.8-6.4,2.8-10.3,3-11.8v-0.4
		c0-0.4-0.2-1-0.5-1.5c-1.5-1.4-3.5-2.1-6-2.1h-0.9C210.1,17.1,209.4,17.2,208.8,17.3L208.8,17.3L208.8,17.3z M207.2,23
		c0-0.8,1.2-1.4,3.7-1.6h0.6c0.7,0,1.3,0.1,1.9,0.2h0.3l-2.2,8.7c-1.1,0.7-2.4,1.1-3.9,1.1h-0.4c-0.7,0-1.4-0.1-2.1-0.3
		C205.2,30.8,205.8,28,207.2,23L207.2,23L207.2,23z"/>
	<path class="st0" d="M221.5,11.7v0.6c0,0.7,0.5,1.3,1.6,1.8c1.7,0,2.5,0.5,2.5,1.6v0.5c0,0.2,0,0.5-0.1,0.7l-3.9,15
		c0,0.7,0.2,1.3,0.7,1.9c1.4,1.4,3.3,2.1,5.8,2.1h1c2.5,0,4.7-0.8,6.7-2.3c0.6,0,1.2-1.8,1.9-5.3c0-0.2,0-0.4-0.1-0.4
		c-0.4-1.2-1-1.8-1.9-1.8h-0.2c-0.6,0-1,0.2-1.2,0.5c-0.4,0-0.9,1.1-1.5,3.3c0,0.8-1.2,1.4-3.7,1.6h-0.9c-0.8,0-1.4-0.1-1.9-0.3
		c0.1-0.7,0.6-2.6,1.5-5.9c1.5-5.1,2.2-8.2,2.2-9.2c-0.1-0.6-0.1-1.1-0.3-1.8h5c1,0,1.5,0.6,1.7,1.8l-0.2,1.3c0,0.1,0,0.3,0.1,0.5
		c0.4,1.2,1.1,1.7,2.1,1.7c0.4-0.1,0.7-0.1,0.9-0.2c1-0.4,1.5-1.4,1.5-3v-0.9c0-0.7-0.2-1.5-0.6-2.3c-1.3-2.2-3-3.3-5.1-3.3h-11.7
		C222.4,9.9,221.8,10.5,221.5,11.7L221.5,11.7L221.5,11.7z"/>
	<path d="M251.5,17.5c-2.2,0.7-3.7,1.5-4.5,2.5c-2,7.3-3.1,11.3-3.1,11.9v0.3c0,0.6,0.3,1.2,0.8,1.8c1.5,1.3,3.3,1.9,5.5,1.9h1.4
		c1.3,0,2.7-0.3,4.2-0.9c1.2-0.4,2.2-1.1,2.9-2c2.1-7.4,3.1-11.3,3.1-11.9v-0.4c0-0.5-0.2-1-0.5-1.4c-1.3-1.5-3.4-2.2-6.2-2.2h-0.8
		C253.5,17.1,252.5,17.2,251.5,17.5L251.5,17.5L251.5,17.5z M250.8,22.4c1.2-0.7,2.4-1,3.6-1h0.5c0.5,0,1.3,0.1,2.2,0.3
		c0,0.2-0.7,3.1-2.2,8.7c-1.2,0.7-2.4,1-3.6,1h-0.9c-0.6,0-1.2-0.1-1.8-0.3C248.6,30.9,249.3,28,250.8,22.4L250.8,22.4L250.8,22.4z
		 M279.4,10.7c-0.2,0.4-0.8,2.6-1.8,6.5v0.3c-1.5-0.3-2.7-0.4-3.6-0.4h-0.4c-0.9,0-1.9,0.1-3,0.4c-2.3,0.7-3.8,1.5-4.5,2.5
		c-2,7.3-3.1,11.3-3.1,11.9v0.3c0,0.2,0,0.5,0.1,0.9c1.1,1.9,3.2,2.9,6.3,2.9h1.2c0.7,0,1.6-0.1,2.7-0.4c2.2-0.7,3.7-1.5,4.5-2.5
		c0.3-0.9,2.1-7.7,5.4-20.6v-0.6c0-0.9-0.6-1.5-1.9-1.8h-0.6C280.4,9.9,280,10.2,279.4,10.7L279.4,10.7L279.4,10.7z M269.9,22.4
		c1.2-0.7,2.4-1,3.7-1h0.4c0.5,0,1.2,0.1,2.3,0.3l-2.2,8.7c-1.2,0.7-2.4,1-3.6,1h-0.9c-0.6,0-1.2-0.1-1.8-0.3
		C267.7,30.9,268.5,28,269.9,22.4L269.9,22.4L269.9,22.4z"/>
	<path d="M288.2,12.2c0,1.1,0.7,1.8,2.2,2.1c1.4-0.3,2.1-1,2.1-1.9v-0.6c0-0.9-0.6-1.5-1.9-1.8h-0.6C289.2,10,288.5,10.7,288.2,12.2
		L288.2,12.2L288.2,12.2z M286.7,18.1c-0.3,0.7-1.7,5.8-4.1,15.3v0.7c0.4,1.1,1,1.7,1.8,1.7h0.6c0.6,0,1.1-0.4,1.7-1.2
		c2.5-9.2,3.8-14.3,4-15.3V19c0-1-0.7-1.6-2.1-1.9C287.9,17.1,287.2,17.4,286.7,18.1L286.7,18.1L286.7,18.1z M296,18
		c-0.3,0.5-1.7,5.6-4.2,15.4V34c0,0.9,0.6,1.5,1.9,1.8h0.6c0.4,0,0.9-0.3,1.5-0.9c0.2-0.4,1.4-4.5,3.4-12.4c1.2-0.7,2.6-1.1,4.1-1.1
		c0.6,0.1,1.4,0.2,2.3,0.4l-3,11.6v0.5c0,1,0.7,1.6,2.1,1.9c0.8,0,1.5-0.4,2-1.1c2.4-8.6,3.6-13.1,3.6-13.6v-0.4
		c0-0.5-0.2-1.1-0.6-1.7c-1.5-1.3-3.5-2-5.9-2h-1c-1.1,0-2.3,0.2-3.4,0.6c-0.5-0.4-0.9-0.6-1.2-0.6h-0.6C297,17.2,296.5,17.4,296,18
		L296,18L296,18z"/>
	<path d="M318.3,17.8c-2.5,1-3.7,2-3.7,2.7c-1.9,7-2.8,10.9-2.9,11.5V32c0,0.3,0,0.6,0.1,0.8c1,2,3.2,3,6.7,3h0.5
		c0.4,0,1.2-0.1,2.4-0.2l-0.5,2c-1.2,0.7-2.4,1-3.6,1h-0.9c-0.7,0-1.5-0.1-2.2-0.3c-0.7-1-1.4-1.5-2.1-1.5c-1.5,0.2-2.2,0.9-2.2,2.1
		v0.3c0,0.2,0,0.5,0.1,0.9c1.1,1.9,3.2,2.9,6.3,2.9h1c0.8,0,1.7-0.1,2.5-0.3c2.4-0.6,4-1.5,4.9-2.6c3.3-12.2,5-18.5,5-19v-0.4
		c0-0.5-0.1-0.9-0.4-1.2c-0.7-1.4-2.8-2.3-6.4-2.5h-0.8C321,17.1,319.7,17.3,318.3,17.8L318.3,17.8L318.3,17.8z M318.6,22.5
		c1.1-0.7,2.4-1,3.7-1h0.6c0.4,0,1.1,0.1,2.1,0.3c-0.2,0.9-0.9,3.7-2.2,8.6c-1,0.7-2.3,1.1-3.8,1.1h-0.4c-0.6,0-1.3-0.1-2.2-0.3
		L318.6,22.5L318.6,22.5z M342.1,6.9c-6.2,6.6-9.3,13.7-9.3,21.2v1.6c0,1.9,0.2,3.7,0.6,5.4c0.4,3,1.2,4.5,2.5,4.5h0.5l0.4-0.1
		c1-0.4,1.5-1.1,1.5-2.1v-0.1c-0.8-3.4-1.2-6.2-1.2-8.5c0-6.2,2.2-12,6.6-17.4c1.6-1.5,2.4-2.5,2.4-3.1V7.9c0-0.9-0.6-1.5-1.9-1.8
		h-0.6C343.2,6.1,342.7,6.4,342.1,6.9L342.1,6.9L342.1,6.9z M427.9,6.1c-1,0.4-1.5,1.1-1.5,2.1v0.1c0.8,3.4,1.2,6.2,1.2,8.5
		c0,6.2-2.2,12-6.6,17.4c-1.6,1.5-2.4,2.5-2.4,3.1v0.6c0,0.9,0.6,1.5,1.9,1.8h0.6c0.4,0,0.9-0.3,1.5-0.9c6.2-6.6,9.3-13.7,9.3-21.2
		v-1.6c0-1.9-0.2-3.7-0.6-5.4c-0.4-3-1.2-4.5-2.5-4.5h-0.5L427.9,6.1L427.9,6.1z M438.6,15.9v0.4c0,1.2,0.7,1.9,2.1,2.1
		c1.4-0.3,2.1-1,2.1-1.9v-0.6c0-0.9-0.6-1.5-1.9-1.8h-0.6C439.6,14.1,438.9,14.7,438.6,15.9L438.6,15.9L438.6,15.9z M435.1,29.2v0.6
		c0,0.7,0.6,1.3,1.7,1.8c-0.1,0.5-0.1,0.8-0.2,0.9c0.1,0.6,0.4,0.9,1,0.9h0.2c0.1,0,0.2,0,0.3-0.1c0.4,0,0.8-1.2,1.3-3.6v-0.6
		c0-0.9-0.6-1.5-1.9-1.8h-0.6C436,27.3,435.4,28,435.1,29.2L435.1,29.2L435.1,29.2z"/>
	<path class="st1" d="M343.6,30.8c0,0,9.3-15.3,16.9-24.9c0,0,2.3,1.9,3.5,4.3l3.9-1.8l-4.5,3.3c0,0-1.2-1.6-2.8-3.4
		c0,0-3.9,5.8-6.1,9.3c0,0,4.9-1.8,6.2-3.3c0,0-2.4,4.8-8.2,8.5c0,0,3.1-0.4,5.9-2.4l-4.9,7.9C353.4,28.4,350.5,28.6,343.6,30.8"/>
	<polyline class="st1" points="354.1,32.8 369.8,6.3 380.7,0 404.9,39.3 404,39.7 385.6,15.7 385.1,23.2 390.3,30.8 381.6,24.4 
		381.2,17.7 375.2,19.8 375.6,22.5 379.2,26.9 373.3,23.5 373,17.4 378.1,13.8 381.5,5.7 377.2,8.8 374.2,10.6 380.2,1.6 370.4,7.3 
		356.2,32.9 354.1,32.8 	"/>
	<path class="st1" d="M377,4.8l-5.8,3.3l-11,21c0,0,3.3,1.7,20.8,2c0,0-14.7-1.7-18.2-3.6l8.9-18.5L377,4.8"/>
	<path class="st1" d="M386.8,12.2l7-4.4c0,0,11.3,12,17.1,30.4c0,0-9.6-21.2-17.1-27.5c0,0,3.4,5.2,2.9,12.3l3.9,6.4l-2.4-6.4
		l0.1-4.6c0,0,4.3,5.2,7.3,13.8c0,0-4.5,0.9-6.2,0.2L386.8,12.2"/>
	<path class="st1" d="M402.3,19.8l6.7-2.7c0,0,4.4,5.5,7.8,14.8c0,0-5.2-10.9-8.1-13.5c0,0-2.2,1.2-3.6,2.9c0,0,1.7-0.8,3.7-0.5
		c0,0,3,3.5,4.5,8.5c0,0-4.2,0.6-6.1,0.5L402.3,19.8"/>
	<path class="st2" d="M353.7,29.9c0,0-9,1.8-6.4,3.9c2.7,2.1,3,4.7-18,8.6c0,0,44-4.9,87.9,4.3c0,0-16.1-6.4-32.5-8
		C366.2,36.9,340.7,35.2,353.7,29.9"/>
	<path class="st2" d="M385.6,44.9c0,0-37.4-4.4-56.1,0.5C329.5,45.4,361.3,43,385.6,44.9"/>
	<path class="st1" d="M354.1,32.8c0,0,4.9,1.8,13.2,2.3c8.2,0.5,33.3,1.2,53.8,10.6c0,0-9.5-6.2-29.6-9.7
		c-20.1-3.5-28.7-1.6-35.1-4.6L354.1,32.8"/>
</g>
</svg>
